<svg xmlns="http://www.w3.org/2000/svg" xmlns:xlink="http://www.w3.org/1999/xlink" width="500" zoomAndPan="magnify" viewBox="0 0 375 374.999991" height="500" preserveAspectRatio="xMidYMid meet" version="1.0"><path fill="#daa520" d="M 262.3125 37.5 L 271.3125 37.5 L 278.0625 38.25 L 283.875 39.375 L 289.6875 41.0625 L 294.5625 42.9375 L 299.4375 45.1875 L 303.5625 47.4375 L 308.0625 50.4375 L 311.0625 52.6875 L 313.5 54.75 L 315.5625 56.4375 L 320.25 61.125 L 321.9375 63.1875 L 323.8125 65.4375 L 326.25 68.8125 L 328.5 72.375 L 330.375 75.75 L 331.875 78.75 L 333.75 82.875 L 336 89.625 L 337.125 94.125 L 338.0625 99.5625 L 338.4375 104.8125 L 338.4375 114 L 338.0625 119.25 L 337.125 124.5 L 335.8125 129.75 L 333.9375 135.1875 L 332.25 139.125 L 330.375 143.0625 L 327.75 147.5625 L 324.9375 151.6875 L 323.0625 154.125 L 320.8125 156.75 L 318 159.75 L 315.9375 161.8125 L 314.4375 163.125 L 312.375 165 L 309.375 167.25 L 305.625 169.875 L 301.125 172.5 L 298.125 174 L 294.5625 175.6875 L 290.0625 177.375 L 285 178.875 L 281.0625 179.8125 L 276.375 180.5625 L 269.625 181.125 L 195 181.125 L 194.8125 174.1875 L 195 104.25 L 195.75 97.875 L 197.25 90.9375 L 198.9375 85.5 L 201 80.25 L 202.6875 76.6875 L 205.125 72.375 L 207.375 68.8125 L 209.0625 66.5625 L 210.9375 64.125 L 212.625 62.0625 L 215.0625 59.625 L 216.375 58.125 L 219.375 55.3125 L 221.25 53.625 L 223.5 51.9375 L 226.875 49.5 L 230.8125 47.0625 L 235.6875 44.4375 L 240.375 42.375 L 243.9375 41.0625 L 249.1875 39.5625 L 254.4375 38.4375 L 260.0625 37.6875 Z M 296.4375 51 L 294.75 54 L 291 60 L 288.1875 61.875 L 284.8125 63.75 L 281.8125 65.25 L 278.25 66.9375 L 277.3125 68.0625 L 277.125 68.4375 L 277.125 69.75 L 277.875 70.875 L 279.375 72.375 L 280.875 73.6875 L 282.9375 75.5625 L 284.4375 76.875 L 285.5625 77.8125 L 285 78.75 L 283.3125 80.625 L 281.625 82.6875 L 277.125 87.9375 L 275.0625 90.375 L 273.375 92.25 L 271.6875 94.3125 L 267.1875 99.5625 L 265.875 101.0625 L 264.1875 102.9375 L 262.125 105.5625 L 259.875 108 L 257.8125 110.625 L 255.375 113.25 L 253.3125 115.875 L 251.0625 118.3125 L 249.375 120.375 L 244.875 125.625 L 243.1875 127.5 L 240.75 129.5625 L 238.125 131.625 L 235.125 134.0625 L 232.3125 136.125 L 233.4375 137.4375 L 237.1875 140.8125 L 239.25 142.5 L 240.1875 143.4375 L 240.9375 143.0625 L 243.5625 138.375 L 246.1875 133.875 L 247.875 131.0625 L 249.9375 128.625 L 251.625 126.75 L 253.6875 124.125 L 255 122.8125 L 256.6875 120.75 L 258.75 118.3125 L 259.125 117.5625 L 259.5 117.5625 L 262.875 113.4375 L 263.625 112.6875 L 263.625 112.3125 L 264 112.3125 L 267.375 108.1875 L 268.125 107.4375 L 268.125 107.0625 L 268.5 107.0625 L 271.875 102.9375 L 273.9375 100.6875 L 276 98.0625 L 278.25 95.625 L 279.9375 93.5625 L 281.625 91.6875 L 283.3125 89.625 L 285.5625 87 L 287.25 85.125 L 288.9375 83.0625 L 289.6875 82.125 L 289.6875 81.75 L 290.625 82.3125 L 293.25 84.5625 L 295.875 87 L 297.9375 88.6875 L 299.0625 89.25 L 300.5625 89.0625 L 301.5 88.125 L 302.25 86.25 L 303.5625 81.75 L 305.0625 77.8125 L 306.75 74.0625 L 306.9375 73.5 L 307.6875 73.125 L 309.375 71.625 L 311.25 70.125 L 313.125 68.4375 L 315.75 66.5625 L 315.5625 65.625 L 312.9375 62.8125 L 310.6875 60.75 L 308.8125 59.25 L 307.125 57.75 L 304.5 55.875 L 302.625 54.5625 L 298.875 52.3125 Z M 296.4375 51 " fill-opacity="1" fill-rule="nonzero"/><path fill="#d14e4e" d="M 103.875 194.0625 L 180 194.0625 L 180 269.4375 L 179.625 273.9375 L 178.875 279.1875 L 177.5625 284.8125 L 176.0625 289.5 L 174.375 294 L 171.75 299.4375 L 169.875 302.8125 L 166.5 307.875 L 164.625 310.3125 L 162.9375 312.375 L 160.6875 314.8125 L 159.375 316.3125 L 157.6875 318 L 156.1875 319.3125 L 153.375 321.75 L 149.625 324.5625 L 145.875 327 L 141.9375 329.25 L 138.9375 330.75 L 135.75 332.25 L 131.0625 333.9375 L 127.5 335.0625 L 121.875 336.375 L 115.3125 337.3125 L 112.6875 337.5 L 103.3125 337.5 L 99 337.125 L 93.375 336.1875 L 88.125 334.875 L 83.0625 333.1875 L 78.5625 331.3125 L 74.625 329.4375 L 70.125 326.8125 L 66.75 324.5625 L 64.5 322.875 L 61.5 320.4375 L 59.4375 318.75 L 55.3125 314.625 L 53.625 312.5625 L 51.5625 310.125 L 48.9375 306.5625 L 46.3125 302.4375 L 44.0625 298.3125 L 42 294 L 40.125 289.125 L 38.8125 284.8125 L 37.875 280.875 L 37.125 276.9375 L 36.75 274.3125 L 36.5625 271.875 L 36.5625 259.6875 L 36.9375 255.9375 L 37.6875 251.4375 L 39.1875 245.4375 L 40.6875 240.9375 L 42.375 236.8125 L 44.625 232.125 L 46.125 229.5 L 48.375 225.9375 L 50.625 222.75 L 54.375 218.0625 L 54.75 218.0625 L 55.125 217.3125 L 59.625 212.8125 L 61.125 211.5 L 62.8125 210 L 64.3125 208.875 L 67.6875 206.4375 L 71.4375 204 L 74.8125 202.125 L 79.3125 199.875 L 84.5625 197.8125 L 88.875 196.5 L 93.75 195.375 L 99.375 194.4375 Z M 125.625 224.625 L 119.625 225.1875 L 114.9375 226.125 L 112.6875 226.875 L 111.5625 227.625 L 110.0625 228.9375 L 108.75 230.8125 L 106.875 234.75 L 104.8125 240.9375 L 103.3125 246.9375 L 101.625 254.0625 L 100.5 257.625 L 99 261.375 L 96.9375 265.3125 L 95.625 267.375 L 93.375 270.5625 L 91.3125 273 L 89.625 275.0625 L 87.9375 276.75 L 86.625 278.25 L 79.3125 285.5625 L 77.8125 286.875 L 75.5625 288.9375 L 72.9375 291.1875 L 70.125 293.8125 L 68.0625 295.5 L 65.4375 297.9375 L 63.9375 299.25 L 61.6875 301.3125 L 59.625 303 L 57.1875 305.25 L 56.8125 305.4375 L 57 306.5625 L 59.0625 309 L 60.375 310.5 L 61.875 312.1875 L 62.25 312.1875 L 62.25 312.5625 L 63.75 313.875 L 65.625 315.5625 L 67.5 317.0625 L 71.0625 319.6875 L 71.625 319.875 L 73.5 317.625 L 75.5625 315 L 77.25 312.9375 L 78.75 311.0625 L 81.375 307.875 L 82.875 306 L 84.9375 303.375 L 87.375 300.375 L 89.0625 298.3125 L 91.5 295.3125 L 93.1875 293.4375 L 94.875 291.375 L 99.75 285.75 L 101.0625 284.25 L 102.75 283.125 L 105.9375 281.4375 L 112.3125 278.8125 L 119.8125 276 L 125.4375 273.9375 L 128.0625 272.8125 L 130.3125 271.125 L 132.1875 269.25 L 134.25 266.25 L 136.3125 262.6875 L 139.125 258.1875 L 142.125 253.6875 L 144.5625 249.9375 L 145.5 248.0625 L 145.6875 247.3125 L 145.6875 246 L 145.3125 244.5 L 144.1875 244.6875 L 139.6875 247.5 L 135.9375 249.9375 L 131.8125 252.5625 L 128.0625 255 L 127.5 254.4375 L 125.4375 249.9375 L 123 243.9375 L 121.875 240.5625 L 121.6875 238.6875 L 122.625 237.1875 L 123.9375 235.875 L 126.9375 233.625 L 130.875 231.1875 L 135.1875 228.9375 L 136.5 228 L 136.875 226.875 L 136.125 225.375 L 135 225 L 131.8125 224.625 Z M 125.625 224.625 " fill-opacity="1" fill-rule="nonzero"/><path fill="#484f57" d="M 103.875 37.5 L 112.3125 37.5 L 117.9375 38.0625 L 123.375 39 L 128.625 40.3125 L 134.0625 42.1875 L 138.375 44.0625 L 141.5625 45.5625 L 145.5 47.8125 L 148.875 50.0625 L 151.5 51.9375 L 154.125 54 L 156.5625 56.25 L 158.0625 57.5625 L 158.0625 57.9375 L 158.8125 58.3125 L 161.4375 61.125 L 162.75 62.4375 L 164.8125 65.0625 L 166.6875 67.5 L 168.5625 70.3125 L 170.625 73.6875 L 173.25 78.75 L 174.9375 82.5 L 177 88.3125 L 178.3125 93.375 L 179.25 98.25 L 179.8125 103.125 L 180 105.5625 L 180 181.125 L 105 181.125 L 99.75 180.75 L 94.875 180 L 89.8125 178.875 L 84.375 177.1875 L 79.125 175.125 L 75.1875 173.25 L 70.875 170.8125 L 67.5 168.5625 L 64.875 166.6875 L 62.25 164.625 L 60.375 162.9375 L 53.625 156.1875 L 51.5625 153.5625 L 49.6875 151.125 L 47.0625 147.1875 L 45.375 144.375 L 42.75 139.3125 L 40.6875 134.25 L 39 129.1875 L 37.5 122.8125 L 36.75 117.75 L 36.5625 115.5 L 36.5625 102.9375 L 36.9375 99.1875 L 37.875 94.125 L 39.1875 88.875 L 40.6875 84.375 L 42.5625 79.875 L 44.4375 75.9375 L 47.0625 71.4375 L 49.3125 68.0625 L 51.5625 65.0625 L 53.8125 62.4375 L 55.3125 60.5625 L 59.8125 56.0625 L 61.875 54.375 L 64.3125 52.3125 L 66.9375 50.4375 L 69.75 48.5625 L 73.5 46.3125 L 77.8125 44.0625 L 83.25 41.8125 L 87.75 40.3125 L 93 39 L 97.125 38.25 Z M 74.0625 53.625 L 72.5625 54.375 L 69.9375 56.25 L 67.6875 57.9375 L 65.8125 59.625 L 63.9375 61.125 L 61.6875 63.1875 L 60.1875 64.5 L 60.375 65.25 L 62.0625 67.125 L 64.875 70.125 L 69 74.25 L 70.5 75.5625 L 73.5 78.375 L 75.5625 80.0625 L 78.75 82.6875 L 80.0625 83.8125 L 81.9375 86.25 L 83.8125 89.8125 L 85.125 93.375 L 86.0625 97.3125 L 86.625 101.25 L 86.8125 103.875 L 87 108.9375 L 88.3125 111 L 90 112.875 L 93.375 117 L 95.625 119.625 L 96.375 119.4375 L 98.25 117.9375 L 101.0625 115.5 L 104.25 112.875 L 106.3125 111 L 108.1875 109.5 L 110.0625 107.8125 L 112.125 106.125 L 114.5625 104.0625 L 116.4375 102.375 L 118.3125 100.875 L 120.1875 99.1875 L 122.0625 97.6875 L 122.0625 96.9375 L 120.1875 94.6875 L 118.6875 92.8125 L 116.625 90.375 L 114.9375 88.3125 L 113.625 87 L 112.125 86.4375 L 107.625 85.6875 L 103.5 84.5625 L 99 82.875 L 95.0625 80.8125 L 92.0625 78.5625 L 90.375 77.0625 L 88.6875 74.8125 L 85.875 69.9375 L 82.875 65.0625 L 80.4375 61.5 L 78 58.125 L 75.375 54.75 L 74.4375 53.625 Z M 123.5625 100.3125 L 121.5 101.625 L 119.0625 103.875 L 116.4375 105.9375 L 114.375 107.8125 L 112.5 109.3125 L 110.4375 111 L 108.375 112.875 L 105.75 114.9375 L 103.875 116.625 L 101.8125 118.3125 L 99 120.75 L 98.4375 121.6875 L 98.625 123 L 99.75 124.3125 L 101.0625 124.5 L 102.5625 123.5625 L 105.1875 121.3125 L 107.0625 119.8125 L 109.875 117.375 L 111.75 115.875 L 113.625 114.1875 L 116.25 112.125 L 118.3125 110.25 L 120.375 108.5625 L 122.8125 106.5 L 125.4375 104.25 L 126 103.6875 L 126.1875 102.5625 L 125.625 101.25 L 124.875 100.5 Z M 127.875 106.6875 L 126 107.625 L 123.1875 110.0625 L 121.3125 111.5625 L 119.4375 113.25 L 116.8125 115.3125 L 114.5625 117.375 L 111.9375 119.4375 L 109.875 121.3125 L 107.25 123.375 L 104.4375 126 L 103.875 127.3125 L 103.875 128.8125 L 104.625 130.5 L 106.6875 132.9375 L 108.375 135 L 111 138.1875 L 113.25 140.8125 L 114.75 142.6875 L 117 145.3125 L 118.5 147.1875 L 120.75 149.8125 L 122.8125 152.4375 L 124.5 154.3125 L 126.1875 154.875 L 128.0625 153.75 L 130.5 151.6875 L 134.625 148.3125 L 136.5 146.625 L 136.5 145.3125 L 135.375 143.0625 L 133.5 139.875 L 131.4375 136.3125 L 130.875 135.5625 L 130.875 135.1875 L 132.75 136.5 L 136.125 138.9375 L 139.6875 141.5625 L 141 142.5 L 141.75 142.3125 L 142.5 141.75 L 142.3125 140.4375 L 139.875 135.75 L 140.0625 135.5625 L 141.1875 136.3125 L 143.4375 138 L 144.75 138.75 L 146.0625 138.75 L 147.75 137.625 L 150.375 135.375 L 151.3125 134.625 L 151.6875 133.3125 L 151.3125 132.1875 L 149.8125 130.125 L 147.375 127.3125 L 145.875 125.4375 L 143.625 122.8125 L 142.125 120.9375 L 139.875 118.3125 L 138.375 116.4375 L 136.125 113.8125 L 134.4375 111.75 L 132.375 109.3125 L 131.0625 107.8125 L 129.5625 106.875 Z M 127.875 106.6875 " fill-opacity="1" fill-rule="nonzero"/><path fill="#4f7942" d="M 195 194.0625 L 271.125 194.0625 L 276.9375 194.625 L 281.4375 195.375 L 287.4375 196.875 L 292.875 198.75 L 297.1875 200.625 L 301.6875 202.875 L 305.4375 205.125 L 309.1875 207.75 L 311.0625 209.25 L 313.5 211.125 L 316.3125 213.75 L 320.4375 217.875 L 322.125 219.9375 L 324.5625 222.9375 L 326.625 225.9375 L 328.875 229.5 L 331.3125 234 L 333.375 238.5 L 335.25 243.75 L 336.5625 248.25 L 337.6875 253.6875 L 338.25 258.1875 L 338.4375 261.5625 L 338.4375 270.375 L 338.0625 275.625 L 337.125 280.875 L 335.8125 286.125 L 334.125 291.1875 L 332.0625 296.0625 L 329.8125 300.5625 L 327.5625 304.3125 L 326.0625 306.5625 L 323.8125 309.5625 L 321.375 312.5625 L 319.6875 314.4375 L 317.4375 316.875 L 314.4375 319.6875 L 312.1875 321.5625 L 309.5625 323.625 L 303.9375 327.375 L 299.625 329.8125 L 294.375 332.25 L 291 333.5625 L 286.125 335.0625 L 281.4375 336.1875 L 277.125 336.9375 L 271.5 337.5 L 261.75 337.5 L 256.3125 336.9375 L 251.25 336 L 246.75 334.875 L 241.6875 333.1875 L 237.1875 331.3125 L 233.25 329.4375 L 228.1875 326.4375 L 225.1875 324.375 L 222.1875 322.125 L 219.5625 319.875 L 217.125 317.625 L 215.625 316.3125 L 213.9375 314.4375 L 212.0625 312.375 L 210.375 310.3125 L 208.125 307.3125 L 206.25 304.5 L 204 300.75 L 201.75 296.4375 L 200.0625 292.5 L 198.5625 288.5625 L 197.25 284.0625 L 196.125 279 L 195.375 273.9375 L 195 270 L 194.8125 194.4375 Z M 290.625 231.9375 L 285.375 232.5 L 280.125 233.625 L 274.5 235.5 L 269.625 237.9375 L 264.5625 240.9375 L 260.25 243.5625 L 255.5625 246.5625 L 250.3125 250.125 L 247.3125 252.375 L 245.25 254.0625 L 244.3125 255 L 242.625 257.0625 L 240.375 260.25 L 238.6875 262.3125 L 237.375 263.625 L 233.625 266.25 L 232.3125 267 L 231.375 266.0625 L 230.4375 265.3125 L 229.6875 264.9375 L 228.375 264.9375 L 226.3125 266.0625 L 224.4375 267.375 L 222 269.0625 L 218.4375 271.5 L 217.3125 273 L 217.125 274.6875 L 218.4375 277.3125 L 220.875 280.6875 L 222.9375 283.6875 L 225.1875 286.875 L 228.1875 291.1875 L 230.4375 294.375 L 231.75 295.875 L 232.5 296.25 L 234 296.25 L 235.3125 295.6875 L 237.375 294.375 L 239.4375 292.875 L 242.625 290.625 L 244.3125 289.3125 L 245.0625 288.375 L 245.25 288 L 245.25 286.3125 L 244.3125 284.4375 L 243.9375 284.0625 L 243.9375 283.5 L 248.4375 280.5 L 252 278.625 L 255.375 277.5 L 257.4375 277.125 L 259.875 277.3125 L 261.75 278.0625 L 263.25 279.75 L 265.6875 283.3125 L 267.9375 286.3125 L 270.1875 289.5 L 279.9375 303 L 282.1875 306.1875 L 284.625 309.5625 L 286.3125 312.1875 L 286.875 313.875 L 286.875 316.5 L 286.3125 318.375 L 286.3125 321.5625 L 287.0625 323.4375 L 288.75 325.6875 L 289.875 327 L 292.875 325.875 L 296.8125 324 L 300.1875 322.125 L 303.9375 319.6875 L 306.75 317.625 L 309.9375 315 L 311.8125 313.3125 L 312.9375 312.375 L 314.25 310.875 L 314.4375 309.9375 L 313.3125 308.4375 L 311.8125 306.5625 L 310.5 304.875 L 308.625 303.75 L 306 303 L 304.3125 303.375 L 300.5625 303.375 L 298.5 302.4375 L 296.8125 301.125 L 295.125 299.0625 L 293.0625 296.4375 L 290.4375 293.0625 L 288.375 290.4375 L 286.125 287.625 L 284.8125 285.9375 L 282.375 282.75 L 280.125 279.9375 L 277.6875 276.75 L 276 274.6875 L 274.125 272.25 L 272.4375 270 L 271.3125 267.5625 L 270.9375 266.4375 L 270.75 262.6875 L 271.125 259.3125 L 272.4375 255.5625 L 274.5 251.8125 L 276 249.5625 L 278.25 246.9375 L 280.6875 244.6875 L 284.0625 242.25 L 287.0625 240.5625 L 289.3125 239.625 L 293.4375 238.875 L 300.375 238.125 L 307.3125 238.125 L 310.125 238.3125 L 311.0625 237.375 L 310.875 236.25 L 309.9375 234.75 L 308.625 234.1875 L 304.5 233.0625 L 300.1875 232.3125 L 296.25 231.9375 Z M 290.625 231.9375 " fill-opacity="1" fill-rule="nonzero"/></svg>