<?xml version="1.0" encoding="UTF-8"?>
<svg xmlns="http://www.w3.org/2000/svg" id="Layer_1" data-name="Layer 1" viewBox="0 0 24 24">
  <path d="m22.676,16.014c-.178-.644-.597-1.18-1.177-1.509l-.749-.423c.166-.692.25-1.391.25-2.082s-.084-1.39-.25-2.082l.748-.424c1.199-.68,1.623-2.208.943-3.406-.329-.582-.864-1-1.508-1.179-.643-.175-1.318-.095-1.899.234l-.751.426c-1.064-1.041-2.359-1.796-3.784-2.208v-.861c0-1.379-1.122-2.5-2.5-2.5s-2.5,1.121-2.5,2.5v.861c-1.425.412-2.72,1.167-3.784,2.208l-.75-.425c-.581-.33-1.254-.41-1.899-.235-.644.179-1.179.597-1.508,1.179-.679,1.198-.256,2.727.943,3.406l.748.424c-.166.692-.25,1.391-.25,2.082s.084,1.39.25,2.082l-.748.423c-.581.329-1,.865-1.178,1.509-.178.644-.095,1.317.234,1.898.329.582.864,1,1.508,1.179.644.176,1.317.096,1.899-.234l.751-.426c1.064,1.041,2.359,1.796,3.784,2.208v.861c0,1.379,1.122,2.5,2.5,2.5s2.5-1.121,2.5-2.5v-.861c1.425-.412,2.72-1.167,3.784-2.208l.75.425c.582.331,1.255.412,1.899.235.644-.179,1.179-.597,1.508-1.179.329-.581.412-1.255.234-1.898Zm-1.104,1.406c-.197.349-.519.6-.905.707-.386.105-.791.057-1.14-.142l-1.085-.614c-.199-.11-.452-.074-.611.094-1.07,1.141-2.435,1.937-3.949,2.303-.224.055-.382.256-.382.486v1.246c0,.827-.673,1.5-1.5,1.5s-1.5-.673-1.5-1.5v-1.246c0-.23-.158-.432-.382-.486-1.514-.366-2.879-1.162-3.949-2.303-.097-.104-.23-.158-.365-.158-.084,0-.169.021-.246.064l-1.086.615c-.349.197-.753.246-1.139.141-.386-.107-.708-.358-.905-.707-.407-.72-.153-1.637.566-2.044l1.083-.613c.201-.114.297-.351.234-.572-.207-.728-.312-1.464-.312-2.19s.105-1.463.312-2.19c.063-.222-.034-.458-.234-.571l-1.083-.613c-.72-.408-.974-1.325-.566-2.045.197-.349.519-.6.905-.707.386-.105.791-.057,1.14.142l1.085.614c.201.112.454.075.611-.094,1.069-1.141,2.435-1.937,3.949-2.303.224-.055.382-.256.382-.486v-1.246c0-.827.673-1.5,1.5-1.5s1.5.673,1.5,1.5v1.246c0,.23.158.432.382.486,1.514.366,2.879,1.162,3.949,2.303.158.168.411.204.611.094l1.086-.615c.349-.197.753-.246,1.139-.141.386.107.708.358.905.707.408.72.153,1.637-.566,2.045l-1.083.613c-.201.113-.297.35-.234.571.207.728.312,1.464.312,2.19s-.105,1.463-.312,2.19c-.063.222.034.458.234.572l1.083.613c.348.197.599.519.706.904s.057.791-.141,1.14Zm-13.065-5.349l-.007-4.572c0-.275-.224-.499-.5-.499h0c-.276,0-.5.225-.499.501l.007,4.57c-.86.224-1.499,1-1.499,1.929s.638,1.703,1.497,1.928l-.004.568c-.002.276.22.502.496.504h.004c.274,0,.498-.222.5-.496l.004-.574c.862-.223,1.503-1,1.503-1.93s-.64-1.706-1.501-1.929Zm-.499,2.929c-.551,0-1-.448-1-1s.449-1,1-1,1,.448,1,1-.449,1-1,1Zm8.499-2.929l-.007-4.572c0-.275-.224-.499-.5-.499h0c-.276,0-.5.225-.499.501l.007,4.57c-.86.224-1.499,1-1.499,1.929s.638,1.703,1.497,1.928l-.004.568c-.002.276.22.502.496.504h.004c.274,0,.498-.222.5-.496l.004-.574c.862-.223,1.503-1,1.503-1.93s-.64-1.706-1.501-1.929Zm-.499,2.929c-.551,0-1-.448-1-1s.449-1,1-1,1,.448,1,1-.449,1-1,1Zm-3.503-6.93l-.004-.574c-.002-.274-.226-.496-.5-.496h-.004c-.276.002-.498.228-.496.504l.004.568c-.859.225-1.497,1-1.497,1.928s.639,1.705,1.499,1.929l-.007,4.57c0,.276.223.501.499.501h0c.276,0,.5-.224.5-.499l.007-4.572c.861-.223,1.501-1,1.501-1.929s-.641-1.707-1.503-1.93Zm-.497,2.93c-.551,0-1-.448-1-1s.449-1,1-1,1,.448,1,1-.449,1-1,1Z"/>
</svg>
