<?xml version="1.0" encoding="iso-8859-1"?>
<!-- Uploaded to: SVG Repo, www.svgrepo.com, Generator: SVG Repo Mixer Tools -->
<svg fill="#4f7942" height="800px" width="800px" version="1.1" id="Layer_1" xmlns="http://www.w3.org/2000/svg" xmlns:xlink="http://www.w3.org/1999/xlink" 
	 viewBox="0 0 512 512" xml:space="preserve">
<g>
	<g>
		<path d="M503.467,153.6h-153.6V76.8c0-4.71-3.823-8.533-8.533-8.533H170.667c-4.71,0-8.533,3.823-8.533,8.533v76.8H8.533
			c-4.71,0-8.533,3.823-8.533,8.533V230.4c0,4.71,3.823,8.533,8.533,8.533H51.2V435.2c0,4.71,3.823,8.533,8.533,8.533h392.533
			c4.71,0,8.533-3.823,8.533-8.533V238.933h42.667c4.71,0,8.533-3.823,8.533-8.533v-68.267C512,157.423,508.177,153.6,503.467,153.6
			z M179.2,85.333h153.6V153.6h-17.067v-42.667c0-4.71-3.823-8.533-8.533-8.533H204.8c-4.71,0-8.533,3.823-8.533,8.533V153.6H179.2
			V85.333z M298.667,119.467V153.6h-85.333v-34.133H298.667z M443.733,426.667H68.267V238.933h25.6V256
			c0,4.71,3.823,8.533,8.533,8.533h68.267c4.71,0,8.533-3.823,8.533-8.533v-17.067h153.6V256c0,4.71,3.823,8.533,8.533,8.533H409.6
			c4.71,0,8.533-3.823,8.533-8.533v-17.067h25.6V426.667z M110.933,247.467v-34.133h51.2v34.133H110.933z M349.867,247.467v-34.133
			h51.2v34.133H349.867z M494.933,221.867h-76.8V204.8c0-4.71-3.823-8.533-8.533-8.533h-68.267c-4.71,0-8.533,3.823-8.533,8.533
			v17.067H179.2V204.8c0-4.71-3.823-8.533-8.533-8.533H102.4c-4.71,0-8.533,3.823-8.533,8.533v17.067h-76.8v-51.2h477.867V221.867z"
			/>
	</g>
</g>
</svg>