<?xml version="1.0" encoding="iso-8859-1"?>
<!-- Uploaded to: SVG Repo, www.svgrepo.com, Generator: SVG Repo Mixer Tools -->
<svg fill="#4f7942" height="800px" width="800px" version="1.1" id="Layer_1" xmlns="http://www.w3.org/2000/svg" xmlns:xlink="http://www.w3.org/1999/xlink" 
	 viewBox="0 0 512 512" xml:space="preserve">
<g>
	<g>
		<path d="M456.533,238.933h-51.2c-2.355,0-4.267,1.911-4.267,4.267v8.533c0,2.355-1.911,4.267-4.267,4.267h-51.2
			c-2.355,0-4.267-1.911-4.267-4.267V243.2c0-2.355-1.911-4.267-4.267-4.267H174.933c-2.355,0-4.267,1.911-4.267,4.267v8.533
			c0,2.355-1.911,4.267-4.267,4.267h-51.2c-2.355,0-4.267-1.911-4.267-4.267V243.2c0-2.355-1.911-4.267-4.267-4.267h-51.2
			c-2.355,0-4.267,1.911-4.267,4.267v196.267c0,2.355,1.911,4.267,4.267,4.267h401.067c2.355,0,4.267-1.911,4.267-4.267V243.2
			C460.8,240.845,458.889,238.933,456.533,238.933z"/>
	</g>
</g>
<g>
	<g>
		<path d="M503.467,153.6H354.133c-2.355,0-4.267-1.911-4.267-4.267V76.8c0-4.71-3.823-8.533-8.533-8.533H170.667
			c-4.71,0-8.533,3.823-8.533,8.533v72.533c0,2.355-1.911,4.267-4.267,4.267H8.533c-4.71,0-8.533,3.823-8.533,8.533V217.6
			c0,2.355,1.911,4.267,4.267,4.267h102.4c2.355,0,4.267-1.911,4.267-4.267v-8.533c0-2.355,1.911-4.267,4.267-4.267h51.2
			c2.355,0,4.267,1.911,4.267,4.267v8.533c0,2.355,1.911,4.267,4.267,4.267h162.133c2.355,0,4.267-1.911,4.267-4.267v-8.533
			c0-2.355,1.911-4.267,4.267-4.267h51.2c2.355,0,4.267,1.911,4.267,4.267v8.533c0,2.355,1.911,4.267,4.267,4.267h102.4
			c2.355,0,4.267-1.911,4.267-4.267v-55.467C512,157.423,508.177,153.6,503.467,153.6z M315.733,149.333
			c0,2.355-1.911,4.267-4.267,4.267H200.533c-2.355,0-4.267-1.911-4.267-4.267v-42.667c0-2.355,1.911-4.267,4.267-4.267h110.933
			c2.355,0,4.267,1.911,4.267,4.267V149.333z"/>
	</g>
</g>
</svg>